<svg width="30" height="30" viewBox="0 0 30 30" fill="none" xmlns="http://www.w3.org/2000/svg">
<path d="M18.9295 11.8672L17.4998 12.3875V15.1562H15.9373V11.2891H15.949L20.0646 9.79062C20.2553 9.71797 20.4631 9.68125 20.6756 9.68828C21.1002 9.69887 21.511 9.84149 21.8508 10.0963C22.1906 10.3511 22.4426 10.7055 22.5717 11.1102C22.717 11.5656 22.8498 11.8734 22.9701 12.0336C23.3337 12.5185 23.8053 12.9119 24.3475 13.1827C24.8897 13.4535 25.4875 13.5943 26.0936 13.5938V15.1562C25.2868 15.1571 24.4898 14.9791 23.76 14.6351C23.0303 14.291 22.3859 13.7894 21.8732 13.1664L21.3287 16.257L22.9686 17.6328V22.9688H21.4061V18.3609L19.6326 16.8734L19.0646 20.0977L13.6787 19.1484L13.9506 17.6094L17.7975 18.2875L18.9295 11.8672ZM21.7967 9.29688C21.3823 9.29688 20.9849 9.13226 20.6918 8.83923C20.3988 8.5462 20.2342 8.14878 20.2342 7.73438C20.2342 7.31997 20.3988 6.92255 20.6918 6.62952C20.9849 6.33649 21.3823 6.17188 21.7967 6.17188C22.2111 6.17188 22.6085 6.33649 22.9015 6.62952C23.1946 6.92255 23.3592 7.31997 23.3592 7.73438C23.3592 8.14878 23.1946 8.5462 22.9015 8.83923C22.6085 9.13226 22.2111 9.29688 21.7967 9.29688Z" fill="#AF3109"/>
</svg>
