<svg width="24" height="24" viewBox="0 0 24 24" fill="none" xmlns="http://www.w3.org/2000/svg">
<g clip-path="url(#clip0_349_602)">
<path d="M11.9362 0.0137745C10.9328 0.0166531 9.93361 0.143617 8.96138 0.391775C4.28158 1.55477 0.567782 5.79447 0.0917817 10.6013C-0.498218 15.1501 1.79968 19.8869 5.73548 22.2358C9.59628 24.6537 14.8281 24.5557 18.6089 22.0128C22.0058 19.8068 24.1207 15.7851 23.9947 11.7283C23.9367 7.71237 21.6847 3.81157 18.2359 1.74867C16.354 0.587674 14.1431 0.00477452 11.9362 0.0137745ZM11.8732 1.70977C16.818 1.70277 21.6618 5.52347 22.1547 10.6343C23.0997 16.294 18.4019 22.0468 12.6672 22.2138C7.21338 22.7578 1.94268 18.134 1.78768 12.6572C1.38068 8.22337 4.30358 3.82257 8.48538 2.35767C9.56317 1.92832 10.713 1.70782 11.8732 1.70977ZM16.964 4.93457C14.2771 7.01947 11.7042 9.24237 9.07538 11.3913C10.2783 11.4083 11.4872 11.4073 12.6962 11.4013C14.1062 9.23627 15.5551 7.10047 16.964 4.93457ZM11.2993 12.5882C9.88928 14.7542 8.43928 16.897 7.02938 19.0619C9.72238 16.982 12.2842 14.7421 14.9311 12.6062C13.7205 12.5916 12.5099 12.5856 11.2993 12.5882Z" fill="black"/>
</g>
<defs>
<clipPath id="clip0_349_602">
<rect width="24" height="24" fill="white"/>
</clipPath>
</defs>
</svg>
