<svg width="40" height="40" viewBox="0 0 40 40" fill="none" xmlns="http://www.w3.org/2000/svg">
<rect width="40" height="40" fill="#CCCCCC"/>
<g clip-path="url(#clip0_347_1037)">
<path d="M20 8.297C13.37 8.297 8 13.67 8 20.297C8 25.6 11.438 30.097 16.205 31.682C16.805 31.795 17.025 31.424 17.025 31.105C17.025 30.82 17.015 30.065 17.01 29.065C13.672 29.789 12.968 27.455 12.968 27.455C12.422 26.07 11.633 25.7 11.633 25.7C10.546 24.956 11.717 24.971 11.717 24.971C12.922 25.055 13.555 26.207 13.555 26.207C14.625 28.042 16.364 27.512 17.05 27.205C17.158 26.429 17.467 25.9 17.81 25.6C15.145 25.3 12.344 24.268 12.344 19.67C12.344 18.36 12.809 17.29 13.579 16.45C13.444 16.147 13.039 14.927 13.684 13.274C13.684 13.274 14.689 12.952 16.984 14.504C17.944 14.237 18.964 14.105 19.984 14.099C21.004 14.105 22.024 14.237 22.984 14.504C25.264 12.952 26.269 13.274 26.269 13.274C26.914 14.927 26.509 16.147 26.389 16.45C27.154 17.29 27.619 18.36 27.619 19.67C27.619 24.28 24.814 25.295 22.144 25.59C22.564 25.95 22.954 26.686 22.954 27.81C22.954 29.416 22.939 30.706 22.939 31.096C22.939 31.411 23.149 31.786 23.764 31.666C28.565 30.092 32 25.592 32 20.297C32 13.67 26.627 8.297 20 8.297Z" fill="white"/>
</g>
<defs>
<clipPath id="clip0_347_1037">
<rect width="24" height="24" fill="white" transform="translate(8 8)"/>
</clipPath>
</defs>
</svg>
