<svg width="60" height="60" viewBox="0 0 60 60" fill="none" xmlns="http://www.w3.org/2000/svg">
<path d="M17.5 47.5H12.5C11.837 47.5 11.2011 47.2366 10.7322 46.7678C10.2634 46.2989 10 45.663 10 45V42.5C10 40.5109 10.7902 38.6032 12.1967 37.1967C13.6032 35.7902 15.5109 35 17.5 35H20M30 20C30 21.9891 29.2098 23.8968 27.8033 25.3033C26.3968 26.7098 24.4891 27.5 22.5 27.5C20.5109 27.5 18.6032 26.7098 17.1967 25.3033C15.7902 23.8968 15 21.9891 15 20C15 18.0109 15.7902 16.1032 17.1967 14.6967C18.6032 13.2902 20.5109 12.5 22.5 12.5C24.4891 12.5 26.3968 13.2902 27.8033 14.6967C29.2098 16.1032 30 18.0109 30 20ZM48.5 24C49.3433 24.9217 49.8109 26.1257 49.8109 27.375C49.8109 28.6243 49.3433 29.8283 48.5 30.75L33.5 45.75L25 47.5L26.75 39L41.75 24C42.6717 23.1567 43.8757 22.6891 45.125 22.6891C46.3743 22.6891 47.5783 23.1567 48.5 24Z" stroke="white" stroke-width="2" stroke-linecap="square" stroke-linejoin="round"/>
</svg>
