<svg width="39" height="39" viewBox="0 0 39 39" fill="none" xmlns="http://www.w3.org/2000/svg">
  <path
    d="M32.9422 17.16H19.5001V22.23H27.6339C26.4932 25.6296 23.2839 28.08 19.5001 28.08C14.7616 28.08 10.9201 24.2385 10.9201 19.5C10.9201 14.7615 14.7616 10.92 19.5001 10.92C21.3717 10.92 23.1017 11.521 24.512 12.5381L28.1269 8.92321C25.7756 7.00285 22.7726 5.85001 19.5001 5.85001C11.9614 5.85001 5.8501 11.9613 5.8501 19.5C5.8501 27.0387 11.9614 33.15 19.5001 33.15C27.0388 33.15 33.1501 27.0387 33.1501 19.5C33.1501 18.7013 33.0744 17.9209 32.9422 17.16Z"
    fill="#F9E65C" />
  <path
    d="M19.5 22.23H27.6338C27.0188 24.0626 25.7993 25.6148 24.2163 26.6604L28.0656 30.1252C31.1653 27.6229 33.15 23.7939 33.15 19.5C33.15 18.7013 33.0743 17.9209 32.9421 17.16H19.5V22.23Z"
    fill="#78A2D2" />
  <path
    d="M24.2164 26.6604C22.8627 27.5547 21.2442 28.08 19.5001 28.08C15.9913 28.08 12.9766 25.9728 11.6467 22.9558L7.33911 25.6971C9.5976 30.1197 14.1934 33.15 19.5001 33.15C22.7449 33.15 25.7233 32.0159 28.0657 30.1252L24.2164 26.6604Z"
    fill="#60BE92" />
  <path
    d="M11.574 16.2119C12.8642 13.1052 15.9264 10.92 19.5 10.92C21.3716 10.92 23.1017 11.521 24.5119 12.5381L28.1268 8.92321C25.7755 7.00285 22.7725 5.85001 19.5 5.85001C14.1289 5.85001 9.48442 8.95363 7.25635 13.4644L11.574 16.2119Z"
    fill="#F15B6C" />
  <path
    d="M19.5 33.54C11.7581 33.54 5.45996 27.2419 5.45996 19.5C5.45996 11.7581 11.7581 5.46001 19.5 5.46001C22.7257 5.46001 25.8776 6.58243 28.3736 8.62096C28.459 8.69077 28.5109 8.79334 28.5164 8.90332C28.5218 9.0133 28.4805 9.12094 28.4025 9.19855L24.7876 12.8135C24.6523 12.9488 24.4385 12.9659 24.2837 12.854C22.8832 11.8439 21.2288 11.31 19.5 11.31C14.9841 11.31 11.31 14.9838 11.31 19.5C11.31 24.0162 14.9841 27.69 19.5 27.69C22.8395 27.69 25.8164 25.6745 27.0726 22.62H19.5C19.2843 22.62 19.11 22.4453 19.11 22.23V17.16C19.11 16.9447 19.2843 16.77 19.5 16.77H32.9421C33.1316 16.77 33.2939 16.9065 33.3262 17.0933C33.4678 17.9096 33.54 18.7196 33.54 19.5C33.54 27.2419 27.2418 33.54 19.5 33.54ZM19.5 6.24001C12.1882 6.24001 6.23996 12.1883 6.23996 19.5C6.23996 26.8117 12.1882 32.76 19.5 32.76C26.8117 32.76 32.76 26.8117 32.76 19.5C32.76 18.8666 32.7096 18.2122 32.6102 17.55H19.89V21.84H27.6338C27.7594 21.84 27.8772 21.9005 27.9505 22.0022C28.0238 22.104 28.0437 22.2351 28.0039 22.354C26.7762 26.0122 23.359 28.47 19.5 28.47C14.5536 28.47 10.53 24.446 10.53 19.5C10.53 14.554 14.5536 10.53 19.5 10.53C21.2819 10.53 22.992 11.0483 24.4666 12.0319L27.541 8.95753C25.2408 7.20214 22.4023 6.24001 19.5 6.24001Z"
    fill="#1F212B" />
  <path
    d="M27.8851 30.42C27.8386 30.42 27.7918 30.4036 27.7544 30.3701L26.1944 28.9661C26.1145 28.8939 26.1078 28.7707 26.18 28.6907C26.2529 28.6108 26.3758 28.6046 26.4557 28.6763L28.0157 30.0803C28.0957 30.1525 28.1023 30.2757 28.0301 30.3557C27.9911 30.3982 27.9385 30.42 27.8851 30.42Z"
    fill="#1F212B" />
  <path
    d="M25.5449 28.314C25.4985 28.314 25.4517 28.2976 25.4143 28.2641L24.7213 27.6401C24.6413 27.5679 24.6347 27.4447 24.7068 27.3647C24.7798 27.2848 24.9026 27.2785 24.9826 27.3503L25.6756 27.9743C25.7555 28.0464 25.7622 28.1697 25.69 28.2496C25.651 28.2921 25.5984 28.314 25.5449 28.314Z"
    fill="#1F212B" />
  <path
    d="M10.8923 23.4C10.8279 23.4 10.7651 23.368 10.7277 23.3099C10.67 23.219 10.6969 23.0985 10.7874 23.0408L11.4 22.6508C11.4901 22.5939 11.611 22.6196 11.6691 22.7105C11.7269 22.8013 11.7 22.9219 11.6095 22.9796L10.9968 23.3696C10.9644 23.3902 10.9281 23.4 10.8923 23.4Z"
    fill="#1F212B" />
  <path
    d="M9.16497 24.499C9.10062 24.499 9.03783 24.467 9.00039 24.4089C8.94267 24.3181 8.96958 24.1976 9.06006 24.1398L9.84006 23.6434C9.93015 23.5864 10.051 23.6118 10.1092 23.703C10.1669 23.7939 10.14 23.9144 10.0495 23.9721L9.26949 24.4686C9.23751 24.4893 9.20124 24.499 9.16497 24.499Z"
    fill="#1F212B" />
  <path
    d="M7.21502 25.74C7.15067 25.74 7.08788 25.708 7.05044 25.6499C6.99272 25.559 7.01963 25.4385 7.11011 25.3808L8.28011 24.6363C8.36981 24.5794 8.4911 24.6051 8.54921 24.696C8.60693 24.7869 8.58002 24.9074 8.48954 24.9651L7.31954 25.7096C7.28756 25.7303 7.25129 25.74 7.21502 25.74Z"
    fill="#1F212B" />
  <path
    d="M9.55508 14.891C9.51881 14.891 9.48254 14.8812 9.45017 14.8606L7.50017 13.6196C7.40969 13.5619 7.38239 13.441 7.4405 13.3505C7.49861 13.2596 7.6199 13.2339 7.7096 13.2908L9.6596 14.5318C9.75008 14.5895 9.77738 14.7104 9.71927 14.8009C9.68222 14.859 9.61943 14.891 9.55508 14.891Z"
    fill="#1F212B" />
  <path
    d="M10.7251 15.6355C10.6888 15.6355 10.6525 15.6257 10.6202 15.6051L10.2302 15.357C10.1397 15.2993 10.1124 15.1784 10.1705 15.0879C10.229 14.9971 10.3499 14.9713 10.4396 15.0283L10.8296 15.2763C10.9201 15.334 10.9474 15.4549 10.8893 15.5454C10.8522 15.6035 10.7894 15.6355 10.7251 15.6355Z"
    fill="#1F212B" />
</svg>