<svg width="45" height="45" viewBox="0 0 45 45" fill="none" xmlns="http://www.w3.org/2000/svg">
<path opacity="0.35" d="M22.5 41.25C32.8553 41.25 41.25 32.8553 41.25 22.5C41.25 12.1447 32.8553 3.75 22.5 3.75C12.1447 3.75 3.75 12.1447 3.75 22.5C3.75 32.8553 12.1447 41.25 22.5 41.25Z" fill="white"/>
<path d="M27.7723 30.4031L14.5966 17.2275C13.8766 16.5075 13.8766 15.3375 14.5966 14.6175L14.6173 14.5969C15.3373 13.8769 16.5073 13.8769 17.2273 14.5969L30.4029 27.7725C31.1229 28.4925 31.1229 29.6625 30.4029 30.3825L30.3823 30.4031C29.6623 31.1231 28.4923 31.1231 27.7723 30.4031Z" fill="black"/>
<path d="M14.5966 27.7725L27.7723 14.5969C28.4923 13.8769 29.6623 13.8769 30.3823 14.5969L30.4029 14.6175C31.1229 15.3375 31.1229 16.5075 30.4029 17.2275L17.2273 30.4031C16.5073 31.1231 15.3373 31.1231 14.6173 30.4031L14.5966 30.3825C13.8766 29.6625 13.8766 28.4925 14.5966 27.7725Z" fill="black"/>
</svg>
