<svg width="24" height="24" viewBox="0 0 24 24" fill="none" xmlns="http://www.w3.org/2000/svg">
<path d="M18.357 1.61395C18.4594 1.44343 18.6253 1.32055 18.8183 1.27235C19.0113 1.22416 19.2155 1.25459 19.386 1.35695L19.389 1.35895L19.393 1.36095L19.403 1.36695C19.4414 1.39112 19.4791 1.41647 19.516 1.44295C19.586 1.49195 19.682 1.56295 19.793 1.65495C20.015 1.83995 20.305 2.11695 20.595 2.49295C21.177 3.24995 21.75 4.40695 21.75 5.99995C21.75 7.59295 21.177 8.74995 20.595 9.50695C20.305 9.88295 20.015 10.16 19.793 10.345C19.677 10.4415 19.5558 10.5316 19.43 10.615L19.402 10.633L19.392 10.639L19.389 10.641L19.387 10.642C19.387 10.642 19.386 10.643 19 9.99995L19.386 10.643C19.2161 10.7393 19.0154 10.7657 18.8264 10.7164C18.6374 10.667 18.4752 10.5459 18.3741 10.3788C18.273 10.2117 18.2411 10.0118 18.2852 9.82148C18.3292 9.63121 18.4458 9.46563 18.61 9.35995L18.615 9.35595L18.656 9.32895C18.7169 9.28608 18.7759 9.24071 18.833 9.19295C18.985 9.06495 19.195 8.86695 19.406 8.59295C19.823 8.04995 20.25 7.20695 20.25 5.99995C20.25 4.79295 19.823 3.94995 19.406 3.40695C19.2374 3.18669 19.0453 2.98549 18.833 2.80695C18.7631 2.74899 18.6904 2.69459 18.615 2.64395L18.61 2.63995C18.441 2.53694 18.3195 2.37127 18.2721 2.17908C18.2247 1.98688 18.2552 1.78374 18.357 1.61395Z" fill="black"/>
<path fill-rule="evenodd" clip-rule="evenodd" d="M10 1.25C8.74022 1.25 7.53204 1.75044 6.64124 2.64124C5.75044 3.53204 5.24999 4.74022 5.24999 6C5.24999 7.25978 5.75044 8.46796 6.64124 9.35876C7.53204 10.2496 8.74022 10.75 10 10.75C11.2598 10.75 12.468 10.2496 13.3588 9.35876C14.2496 8.46796 14.75 7.25978 14.75 6C14.75 4.74022 14.2496 3.53204 13.3588 2.64124C12.468 1.75044 11.2598 1.25 10 1.25ZM6.74999 6C6.74999 5.13805 7.0924 4.3114 7.7019 3.7019C8.31139 3.09241 9.13804 2.75 10 2.75C10.8619 2.75 11.6886 3.09241 12.2981 3.7019C12.9076 4.3114 13.25 5.13805 13.25 6C13.25 6.86195 12.9076 7.6886 12.2981 8.2981C11.6886 8.90759 10.8619 9.25 10 9.25C9.13804 9.25 8.31139 8.90759 7.7019 8.2981C7.0924 7.6886 6.74999 6.86195 6.74999 6ZM10 12.25C7.687 12.25 5.55499 12.776 3.97599 13.664C2.41999 14.54 1.24999 15.866 1.24999 17.5V17.602C1.24899 18.764 1.24799 20.222 2.52699 21.264C3.15599 21.776 4.03699 22.141 5.22699 22.381C6.419 22.623 7.974 22.75 10 22.75C12.026 22.75 13.58 22.623 14.774 22.381C15.964 22.141 16.844 21.776 17.474 21.264C18.753 20.222 18.751 18.764 18.75 17.602V17.5C18.75 15.866 17.58 14.54 16.025 13.664C14.445 12.776 12.314 12.25 10 12.25ZM2.74999 17.5C2.74999 16.649 3.37199 15.725 4.71099 14.972C6.02699 14.232 7.895 13.75 10.001 13.75C12.105 13.75 13.973 14.232 15.289 14.972C16.629 15.725 17.25 16.649 17.25 17.5C17.25 18.808 17.21 19.544 16.526 20.1C16.156 20.402 15.536 20.697 14.476 20.911C13.419 21.125 11.974 21.25 10 21.25C8.026 21.25 6.57999 21.125 5.52399 20.911C4.46399 20.697 3.84399 20.402 3.47399 20.101C2.78999 19.544 2.74999 18.808 2.74999 17.5Z" fill="black"/>
<path d="M17.386 3.35695C17.2155 3.25459 17.0113 3.22416 16.8183 3.27235C16.6253 3.32055 16.4594 3.44343 16.357 3.61395L16.605 4.63795L16.613 4.64295C16.7233 4.72595 16.8219 4.8235 16.906 4.93295C17.138 5.23949 17.2593 5.61562 17.25 5.99995C17.25 6.50695 17.073 6.84995 16.906 7.06795C16.8219 7.17739 16.7233 7.27495 16.613 7.35795L16.605 7.36195C16.4351 7.46552 16.3134 7.63233 16.2665 7.82568C16.2196 8.01903 16.2514 8.22308 16.355 8.39295C16.4586 8.56282 16.6254 8.6846 16.8187 8.73148C17.0121 8.77836 17.2161 8.74652 17.386 8.64295L17.389 8.64095L17.392 8.63995L17.399 8.63495L17.419 8.62295L17.473 8.58595C17.7079 8.41543 17.917 8.21202 18.094 7.98195C18.5281 7.4132 18.7591 6.71538 18.75 5.99995C18.7593 5.28464 18.5287 4.58683 18.095 4.01795C17.9177 3.78782 17.7082 3.5844 17.473 3.41395C17.4552 3.40128 17.4372 3.38895 17.419 3.37695L17.399 3.36495L17.392 3.35995L17.389 3.35895L17.387 3.35795C17.387 3.35795 17.386 3.35695 17 3.99995L17.386 3.35695Z" fill="black"/>
</svg>
