<svg width="62" height="62" viewBox="0 0 62 62" fill="none" xmlns="http://www.w3.org/2000/svg">
<path d="M49.0833 7.75H12.9167C10.0632 7.75 7.75 10.0632 7.75 12.9167V49.0833C7.75 51.9368 10.0632 54.25 12.9167 54.25H49.0833C51.9368 54.25 54.25 51.9368 54.25 49.0833V12.9167C54.25 10.0632 51.9368 7.75 49.0833 7.75Z" stroke="#CCCCCC" stroke-width="2" stroke-linecap="round" stroke-linejoin="round"/>
<path d="M21.958 25.8333C24.0981 25.8333 25.833 24.0984 25.833 21.9583C25.833 19.8182 24.0981 18.0833 21.958 18.0833C19.8179 18.0833 18.083 19.8182 18.083 21.9583C18.083 24.0984 19.8179 25.8333 21.958 25.8333Z" stroke="#CCCCCC" stroke-width="2" stroke-linecap="round" stroke-linejoin="round"/>
<path d="M54.2503 38.75L41.3337 25.8333L12.917 54.25" stroke="#CCCCCC" stroke-width="2" stroke-linecap="round" stroke-linejoin="round"/>
</svg>
