<svg width="24" height="24" viewBox="0 0 24 24" fill="none" xmlns="http://www.w3.org/2000/svg">
<path d="M4 18V8C4 7.4 4.4 7 5 7H6.5L8.2 5.3C8.4 5.1 8.6 5 8.9 5H15.1C15.4 5 15.6 5.1 15.8 5.3L17.5 7H19C19.6 7 20 7.4 20 8V18C20 18.6 19.6 19 19 19H5C4.73478 19 4.48043 18.8946 4.29289 18.7071C4.10536 18.5196 4 18.2652 4 18Z" stroke="#CCCCCC" stroke-width="2" stroke-linejoin="round"/>
<path d="M15 12C15 12.7956 14.6839 13.5587 14.1213 14.1213C13.5587 14.6839 12.7956 15 12 15C11.2044 15 10.4413 14.6839 9.87868 14.1213C9.31607 13.5587 9 12.7956 9 12C9 11.2044 9.31607 10.4413 9.87868 9.87868C10.4413 9.31607 11.2044 9 12 9C12.7956 9 13.5587 9.31607 14.1213 9.87868C14.6839 10.4413 15 11.2044 15 12Z" stroke="#CCCCCC" stroke-width="2" stroke-linejoin="round"/>
</svg>
