<svg width="24" height="24" viewBox="0 0 24 24" fill="none" xmlns="http://www.w3.org/2000/svg">
<g clip-path="url(#clip0_349_613)">
<path d="M17.4511 6.68073C17.9602 6.17433 17.9602 5.34913 17.4511 4.84273L15.5782 2.96973L15.5809 2.97243C15.0852 2.47673 14.2331 1.62463 13.0274 0.421632C12.4594 -0.133068 11.5404 -0.127668 10.9776 0.435032L0.425967 10.9786C0.290979 11.1127 0.183848 11.2722 0.110742 11.4478C0.0376365 11.6235 0 11.8119 0 12.0021C0 12.1924 0.0376365 12.3808 0.110742 12.5564C0.183848 12.7321 0.290979 12.8916 0.425967 13.0256L10.975 23.5666C11.2469 23.8381 11.6155 23.9906 11.9998 23.9906C12.3841 23.9906 12.7527 23.8381 13.0247 23.5666L17.4485 19.1455C17.9575 18.6391 17.9575 17.8138 17.4485 17.3074C17.2039 17.0641 16.873 16.9275 16.5281 16.9275C16.1831 16.9275 15.8522 17.0641 15.6077 17.3074L12.2584 20.662C12.1191 20.8014 11.902 20.8014 11.7627 20.662L3.33587 12.2432C3.19647 12.1039 3.19647 11.8869 3.33587 11.7476L11.76 3.32883C11.7707 3.31803 11.7841 3.31003 11.7949 3.29933C11.9342 3.18943 12.1271 3.20013 12.2557 3.32883L15.6104 6.68083C16.1194 7.18983 16.9447 7.18973 17.4511 6.68073ZM9.20647 12.0557C9.20647 12.8104 9.50655 13.5342 10.0407 14.0679C10.5749 14.6016 11.2993 14.9014 12.0547 14.9014C12.8101 14.9014 13.5346 14.6016 14.0687 14.0679C14.6029 13.5342 14.903 12.8104 14.903 12.0557C14.903 11.301 14.6029 10.5772 14.0687 10.0436C13.5346 9.50989 12.8101 9.21008 12.0547 9.21008C11.2993 9.21008 10.5749 9.50989 10.0407 10.0436C9.50655 10.5772 9.20647 11.301 9.20647 12.0557ZM23.5737 11.0214L20.2807 7.74443C19.7715 7.23813 18.9463 7.23813 18.4399 7.74723C18.3188 7.86772 18.2228 8.01094 18.1573 8.16864C18.0917 8.32635 18.058 8.49545 18.058 8.66623C18.058 8.83701 18.0917 9.00611 18.1573 9.16382C18.2228 9.32153 18.3188 9.46474 18.4399 9.58523L20.6638 11.8065C20.8031 11.9458 20.8031 12.1629 20.6638 12.3022L18.472 14.4912C18.3509 14.6117 18.2549 14.755 18.1893 14.9127C18.1238 15.0704 18.09 15.2395 18.09 15.4103C18.09 15.5811 18.1238 15.7503 18.1893 15.908C18.2549 16.0657 18.3509 16.2089 18.472 16.3294C18.7165 16.5727 19.0474 16.7093 19.3924 16.7093C19.7373 16.7093 20.0682 16.5727 20.3128 16.3294L23.5763 13.0685C23.7108 12.9341 23.8175 12.7745 23.8902 12.5987C23.9629 12.423 24.0002 12.2347 23.9999 12.0445C23.9997 11.8543 23.9619 11.6661 23.8888 11.4905C23.8156 11.315 23.7085 11.1555 23.5737 11.0214Z" fill="black"/>
</g>
<defs>
<clipPath id="clip0_349_613">
<rect width="24" height="24" fill="white"/>
</clipPath>
</defs>
</svg>
