<svg width="20" height="20" viewBox="0 0 20 20" fill="none" xmlns="http://www.w3.org/2000/svg">
<path d="M14.1665 5.00008H18.3332V6.66675H16.6665V17.5001C16.6665 17.7211 16.5787 17.9331 16.4224 18.0893C16.2661 18.2456 16.0542 18.3334 15.8332 18.3334H4.1665C3.94549 18.3334 3.73353 18.2456 3.57725 18.0893C3.42097 17.9331 3.33317 17.7211 3.33317 17.5001V6.66675H1.6665V5.00008H5.83317V2.50008C5.83317 2.27907 5.92097 2.06711 6.07725 1.91083C6.23353 1.75455 6.44549 1.66675 6.6665 1.66675H13.3332C13.5542 1.66675 13.7661 1.75455 13.9224 1.91083C14.0787 2.06711 14.1665 2.27907 14.1665 2.50008V5.00008ZM14.9998 6.66675H4.99984V16.6667H14.9998V6.66675ZM7.49984 3.33341V5.00008H12.4998V3.33341H7.49984Z" fill="#DDDDDD"/>
</svg>
