<svg width="24" height="24" viewBox="0 0 24 24" fill="none" xmlns="http://www.w3.org/2000/svg">
<path d="M5.038 19.346C4.896 19.346 4.77733 19.298 4.682 19.202C4.586 19.1066 4.538 18.988 4.538 18.846V17.846H4C3.436 17.846 2.96167 17.6536 2.577 17.269C2.19233 16.8843 2 16.41 2 15.846V10.846C2 10.2053 2.21167 9.71198 2.635 9.36598C3.05767 9.01931 3.51267 8.84598 4 8.84598V7.23098C4 6.66698 4.19233 6.19265 4.577 5.80798C4.96167 5.42265 5.436 5.22998 6 5.22998H18C18.564 5.22998 19.0383 5.42231 19.423 5.80698C19.8077 6.19231 20 6.66665 20 7.22998V8.84498C20.5387 8.84498 21.0067 9.02765 21.404 9.39298C21.8013 9.75831 22 10.2423 22 10.845V15.845C22 16.409 21.8077 16.8833 21.423 17.268C21.0383 17.6526 20.564 17.845 20 17.845H19.462V18.845C19.462 18.987 19.4203 19.1056 19.337 19.201C19.2543 19.297 19.1423 19.345 19.001 19.345C18.8597 19.345 18.7407 19.297 18.644 19.201C18.548 19.1056 18.5 18.987 18.5 18.845V17.845H5.538V18.845C5.538 18.9876 5.49033 19.1066 5.395 19.202C5.29967 19.2973 5.18067 19.345 5.038 19.345M4 16.846H20C20.2833 16.846 20.521 16.7503 20.713 16.559C20.905 16.3676 21.0007 16.13 21 15.846V10.846C21 10.5626 20.904 10.3253 20.712 10.134C20.52 9.94265 20.2827 9.84665 20 9.84598C19.7167 9.84598 19.4793 9.94198 19.288 10.134C19.0967 10.326 19.0007 10.5633 19 10.846V14.346H5V10.846C5 10.5626 4.904 10.3253 4.712 10.134C4.52 9.94265 4.28267 9.84665 4 9.84598C3.71667 9.84598 3.47933 9.94198 3.288 10.134C3.09667 10.326 3.00067 10.5633 3 10.846V15.846C3 16.1293 3.096 16.367 3.288 16.559C3.48 16.751 3.71733 16.8466 4 16.846ZM6 13.346H18V10.846C18 10.486 18.0917 10.1546 18.275 9.85198C18.4583 9.54931 18.7 9.31398 19 9.14598V7.23098C19 6.94765 18.904 6.70998 18.712 6.51798C18.52 6.32598 18.2827 6.23031 18 6.23098H6C5.71667 6.23098 5.47933 6.32665 5.288 6.51798C5.09667 6.70931 5.00067 6.94698 5 7.23098V9.14598C5.3 9.31398 5.54167 9.54931 5.725 9.85198C5.90833 10.1546 6 10.486 6 10.846V13.346Z" fill="black"/>
</svg>
