<svg width="20" height="20" viewBox="0 0 20 20" fill="none" xmlns="http://www.w3.org/2000/svg">
<path d="M19.8007 1.98671C19.9282 2.11598 19.9999 2.29106 19.9999 2.47359C19.9999 2.65612 19.9282 2.83121 19.8007 2.96048L18.3766 4.40045L15.6459 1.64189L17.0699 0.201917C17.198 0.0726298 17.3716 0 17.5526 0C17.7336 0 17.9072 0.0726298 18.0353 0.201917L19.8007 1.98533V1.98671ZM17.4113 5.37422L14.6806 2.61566L5.37837 12.0141C5.30322 12.09 5.24665 12.1825 5.21316 12.2844L4.11404 15.614C4.09411 15.6747 4.09128 15.7398 4.10587 15.802C4.12046 15.8643 4.15189 15.9212 4.19666 15.9664C4.24142 16.0116 4.29775 16.0434 4.35936 16.0581C4.42096 16.0728 4.48541 16.07 4.5455 16.0498L7.84148 14.9395C7.94219 14.9061 8.03381 14.8494 8.10909 14.774L17.4113 5.37422Z" fill="#DDDDDD"/>
<path fill-rule="evenodd" clip-rule="evenodd" d="M0 17.9312C0 18.4799 0.215775 19.0061 0.599857 19.3941C0.983939 19.7821 1.50487 20.0001 2.04804 20.0001H17.067C17.6102 20.0001 18.1311 19.7821 18.5152 19.3941C18.8993 19.0061 19.115 18.4799 19.115 17.9312V9.65551C19.115 9.4726 19.0431 9.29719 18.9151 9.16786C18.7871 9.03852 18.6134 8.96587 18.4324 8.96587C18.2513 8.96587 18.0777 9.03852 17.9496 9.16786C17.8216 9.29719 17.7497 9.4726 17.7497 9.65551V17.9312C17.7497 18.1141 17.6778 18.2895 17.5497 18.4188C17.4217 18.5482 17.2481 18.6208 17.067 18.6208H2.04804C1.86698 18.6208 1.69334 18.5482 1.56531 18.4188C1.43729 18.2895 1.36536 18.1141 1.36536 17.9312V2.75911C1.36536 2.5762 1.43729 2.40079 1.56531 2.27146C1.69334 2.14212 1.86698 2.06947 2.04804 2.06947H10.9229C11.1039 2.06947 11.2776 1.99681 11.4056 1.86747C11.5336 1.73814 11.6056 1.56273 11.6056 1.37983C11.6056 1.19692 11.5336 1.02151 11.4056 0.892176C11.2776 0.762844 11.1039 0.690186 10.9229 0.690186H2.04804C1.50487 0.690186 0.983939 0.908161 0.599857 1.29616C0.215775 1.68416 0 2.21039 0 2.75911V17.9312Z" fill="#DDDDDD"/>
</svg>
