<svg width="17" height="24" viewBox="0 0 17 24" fill="none" xmlns="http://www.w3.org/2000/svg">
<path d="M12.195 8.981H7.607V0H12.195C14.671 0 16.685 2.014 16.685 4.49C16.685 6.966 14.671 8.981 12.195 8.981ZM9.078 7.51H12.195C13.86 7.51 15.214 6.155 15.214 4.491C15.214 2.827 13.859 1.472 12.195 1.472H9.078V7.51ZM9.078 8.981H4.491C2.015 8.981 0.000999928 6.967 0.000999928 4.491C0.000999928 2.015 2.015 0 4.491 0H9.079V8.981H9.078ZM4.491 1.471C2.826 1.471 1.472 2.826 1.472 4.49C1.472 6.154 2.826 7.51 4.491 7.51H7.608V1.471H4.491ZM9.078 16.49H4.491C2.015 16.49 0.000999928 14.476 0.000999928 12C0.000999928 9.524 2.015 7.51 4.491 7.51H9.079V16.49H9.078ZM4.491 8.981C2.826 8.981 1.472 10.336 1.472 12C1.472 13.664 2.827 15.019 4.491 15.019H7.608V8.981H4.491ZM4.515 24C2.026 24 0 21.986 0 19.51C0 17.034 2.014 15.02 4.49 15.02H9.078V19.461C9.078 21.964 7.031 24 4.515 24ZM4.491 16.49C3.69064 16.4911 2.92336 16.8095 2.35741 17.3754C1.79147 17.9414 1.47306 18.7086 1.472 19.509C1.472 21.174 2.837 22.528 4.516 22.528C6.221 22.528 7.609 21.152 7.609 19.46V16.49H4.491ZM12.195 16.49H12.097C9.621 16.49 7.607 14.476 7.607 12C7.607 9.524 9.621 7.51 12.097 7.51H12.195C14.671 7.51 16.685 9.524 16.685 12C16.685 14.476 14.671 16.49 12.195 16.49ZM12.098 8.981C10.433 8.981 9.079 10.336 9.079 12C9.079 13.664 10.434 15.019 12.098 15.019H12.196C13.861 15.019 15.215 13.664 15.215 12C15.215 10.336 13.859 8.981 12.195 8.981H12.098Z" fill="black"/>
</svg>
