<svg width="60" height="60" viewBox="0 0 60 60" fill="none" xmlns="http://www.w3.org/2000/svg">
<path d="M29.939 5C29.5392 5.01365 29.1542 5.1548 28.8403 5.40283L11.0742 19.3994C8.81935 21.1765 7.5 23.8919 7.5 26.7627V50.625C7.5 52.3295 8.92051 53.75 10.625 53.75H23.125C24.8295 53.75 26.25 52.3295 26.25 50.625V38.125C26.25 37.7562 26.5062 37.5 26.875 37.5H33.125C33.4938 37.5 33.75 37.7562 33.75 38.125V50.625C33.75 52.3295 35.1705 53.75 36.875 53.75H49.375C51.0795 53.75 52.5 52.3295 52.5 50.625V26.7627C52.5 23.8919 51.1807 21.1765 48.9258 19.3994L31.1597 5.40283C30.8129 5.12893 30.3806 4.98626 29.939 5ZM30 9.26269L46.6064 22.3462C47.9616 23.4142 48.75 25.0385 48.75 26.7627V50H37.5V38.125C37.5 35.7313 35.5187 33.75 33.125 33.75H26.875C24.4813 33.75 22.5 35.7313 22.5 38.125V50H11.25V26.7627C11.25 25.0385 12.0384 23.4142 13.3936 22.3462L30 9.26269Z" fill="white"/>
</svg>
