<svg width="20" height="20" viewBox="0 0 20 20" fill="none" xmlns="http://www.w3.org/2000/svg">
<g clip-path="url(#clip0_77_649)">
<path d="M3.76688 4.945L1.16104 2.34L2.34021 1.16083L18.8394 17.6608L17.6602 18.8392L14.9019 16.0808C13.4362 17.0105 11.7358 17.5028 10.0002 17.5C5.50688 17.5 1.76854 14.2667 0.984375 10C1.34273 8.05893 2.31823 6.28575 3.76688 4.945ZM12.2977 13.4767L11.0777 12.2567C10.6111 12.4799 10.0867 12.5529 9.57682 12.4657C9.06695 12.3784 8.59671 12.1351 8.23093 11.7693C7.86516 11.4035 7.62185 10.9333 7.53456 10.4234C7.44726 9.91352 7.52028 9.38913 7.74354 8.9225L6.52354 7.7025C5.99331 8.50374 5.75627 9.46361 5.85257 10.4196C5.94887 11.3755 6.37258 12.2688 7.05197 12.9482C7.73136 13.6276 8.62467 14.0513 9.58063 14.1476C10.5366 14.2439 11.4965 14.0069 12.2977 13.4767ZM6.64521 3.13333C7.68438 2.725 8.81688 2.5 10.0002 2.5C14.4935 2.5 18.2319 5.73333 19.016 10C18.7607 11.3881 18.1868 12.698 17.3394 13.8267L14.1227 10.61C14.2183 9.96634 14.1617 9.30926 13.9576 8.69138C13.7536 8.0735 13.4076 7.51201 12.9475 7.05189C12.4874 6.59177 11.9259 6.24581 11.308 6.04173C10.6901 5.83765 10.033 5.78112 9.38938 5.87667L6.64521 3.13333Z" fill="#66BFFF"/>
</g>
<defs>
<clipPath id="clip0_77_649">
<rect width="20" height="20" fill="white"/>
</clipPath>
</defs>
</svg>
