<svg width="24" height="24" viewBox="0 0 24 24" fill="none" xmlns="http://www.w3.org/2000/svg">
<path d="M11 5.1001C11 4.83488 11.1053 4.58053 11.2929 4.39299C11.4804 4.20545 11.7348 4.1001 12 4.1001C12.2652 4.1001 12.5196 4.20545 12.7071 4.39299C12.8946 4.58053 13 4.83488 13 5.1001L14.7 9.1001C14.8 9.5001 15.1 9.7001 15.5 9.7001L20 10.1001C20.1791 10.1357 20.345 10.2196 20.4797 10.3427C20.6145 10.4659 20.713 10.6236 20.7645 10.7988C20.816 10.9739 20.8186 11.1598 20.772 11.3363C20.7253 11.5129 20.6313 11.6732 20.5 11.8001L17.2 14.6001C17.0627 14.723 16.9621 14.8814 16.9091 15.0578C16.8562 15.2343 16.853 15.422 16.9 15.6001L17.9 19.6001C17.9829 19.8003 17.9985 20.0219 17.9446 20.2318C17.8906 20.4416 17.77 20.6282 17.6008 20.7636C17.4316 20.8989 17.223 20.9757 17.0065 20.9823C16.7899 20.9888 16.5771 20.9249 16.4 20.8001L12.5 18.5001C12.348 18.4123 12.1755 18.3661 12 18.3661C11.8244 18.3661 11.652 18.4123 11.5 18.5001L7.49998 20.8001C7.33276 20.8772 7.1475 20.9066 6.96463 20.8851C6.78176 20.8636 6.60838 20.792 6.46359 20.6782C6.31881 20.5645 6.20824 20.4129 6.14409 20.2404C6.07993 20.0678 6.06467 19.8808 6.09998 19.7001L7.09998 15.6001C7.19998 15.2001 7.09998 14.8001 6.79998 14.6001L3.49998 11.8001C3.36869 11.6732 3.27462 11.5129 3.22799 11.3363C3.18136 11.1598 3.18394 10.9739 3.23546 10.7988C3.28697 10.6236 3.38546 10.4659 3.52023 10.3427C3.655 10.2196 3.82091 10.1357 3.99998 10.1001L8.49998 9.7001C8.89998 9.7001 9.19998 9.5001 9.29998 9.1001L11.1 5.1001H11Z" stroke="black" stroke-width="2"/>
</svg>
