<svg width="24" height="24" viewBox="0 0 24 24" fill="none" xmlns="http://www.w3.org/2000/svg">
<path d="M10.7998 5.5L10.3998 3M10.7998 5.5C9.4582 5.81119 8.29041 6.63238 7.54378 7.78966C6.79715 8.94694 6.53032 10.3494 6.7998 11.7L7.0998 13.5C7.4998 15.8 5.7998 16.7 5.9998 17.9C6.0998 18.5 6.2998 19 6.7998 19L19.4998 16.5C19.9998 16.4 19.8998 15.8 19.7998 15.2C19.5998 14.1 17.5998 13.8 17.1998 11.5L16.7998 9.7C16.555 8.34388 15.7916 7.13645 14.6715 6.33371C13.5514 5.53098 12.1627 5.19607 10.7998 5.4V5.5ZM3.7998 9.8C3.89125 7.98706 4.59653 6.25913 5.7998 4.9M8.4998 18.6C8.78973 19.3089 9.30421 19.9032 9.96434 20.2917C10.6245 20.6801 11.3938 20.8413 12.1543 20.7505C12.9149 20.6597 13.6246 20.3219 14.1747 19.7889C14.7249 19.256 15.085 18.5573 15.1998 17.8L15.2998 17.3L8.4998 18.6Z" stroke="white" stroke-width="2" stroke-linecap="round" stroke-linejoin="round"/>
</svg>
